<?xml version="1.0" encoding="UTF-8" standalone="no"?>
<!-- Created with Inkscape (http://www.inkscape.org/) -->

<svg
   width="338.02893mm"
   height="79.375mm"
   viewBox="0 0 338.02895 79.375"
   version="1.1"
   id="svg5"
   xmlns="http://www.w3.org/2000/svg"
   xmlns:svg="http://www.w3.org/2000/svg">
  <defs
     id="defs2" />
  <g
     id="layer1"
     transform="translate(171.63527,-18.884811)">
    <g
       id="g854"
       transform="translate(29.168155,30.436335)">
      <path
         style="fill:#00b0d5;fill-opacity:1;stroke-width:0.112598"
         d="m -200.80343,-11.551524 h 4.49792 v 79.375 h -4.49792 z"
         id="path856-5" />
      <path
         style="fill:#00b0d5;fill-opacity:1;stroke-width:0.11607"
         d="m -74.372467,14.56745 c -2.113101,-0.33043 -4.30015,-1.321192 -6.060963,-2.745684 l -0.257425,-0.208264 1.108766,-1.334807 c 0.609823,-0.7341468 1.177198,-1.4058082 1.260847,-1.4925784 0.127403,-0.1321633 0.256373,-0.08071 0.794915,0.3171291 1.737829,1.2838123 3.231327,1.8119583 5.127061,1.8130773 1.179581,6.04e-4 1.320956,-0.02377 1.857134,-0.321339 0.706585,-0.39216 0.986601,-0.844458 0.986601,-1.593569 0,-1.1064678 -0.794002,-1.6157965 -3.777503,-2.4231474 -2.220163,-0.6007864 -2.887585,-0.8335344 -3.868833,-1.3491715 -1.440877,-0.7571553 -2.302766,-1.8815808 -2.579722,-3.3655345 -0.179788,-0.96331467 -0.07014,-2.5220145 0.233679,-3.3218533 0.596269,-1.5697139 1.99087,-2.8397241 3.773596,-3.4364522 0.869189,-0.2909456 1.073008,-0.3132339 2.7947,-0.3056251 2.068875,0.00913 2.931248,0.1765041 4.578049,0.8884843 1.023012,0.4422883 2.465945,1.3564114 2.41855,1.5321896 -0.01778,0.06603 -0.500274,0.802355 -1.072167,1.6362946 l -1.039809,1.5162461 -0.411072,-0.2839839 c -0.787519,-0.54405852 -2.464253,-1.2902179 -3.334229,-1.4837723 -2.526756,-0.5621493 -4.318911,0.49278631 -3.752552,2.20888327 0.266334,0.80701223 0.765,1.03786713 4.760534,2.20391153 2.715218,0.7923932 4.290811,1.8137239 4.986515,3.232343 1.024548,2.0891797 0.479982,5.1421038 -1.18572,6.6473778 -0.651538,0.588786 -1.880262,1.233532 -2.889962,1.51647 -0.754579,0.211433 -3.479268,0.305329 -4.45099,0.153375 z M -172.39423,6.6803583 v -7.7767387 h -2.95981 -2.9598 v -1.9732078 -1.9732021 h 8.06692 8.06692 v 1.9732021 1.9732078 h -2.95981 -2.9598 v 7.7767387 7.7767447 h -2.14731 -2.14731 z m 13.58028,-1.9824558 v -9.7592009 l 5.2522,0.049536 c 4.39677,0.041432 5.37508,0.080891 6.00667,0.2421593 2.02214,0.5163511 3.41468,1.5339016 4.21741,3.0817325 0.52643,1.01506458 0.69613,1.80269773 0.69011,3.2030931 -0.0107,2.4980324 -1.09772,4.3536112 -3.2387,5.5286497 l -0.86339,0.4738549 0.20665,0.3142923 c 0.11367,0.172863 1.15989,1.7035708 2.32495,3.4015716 1.16506,1.698006 2.11829,3.117938 2.11829,3.155401 0,0.03744 -1.09495,0.06813 -2.43321,0.06813 h -2.43321 l -2.10209,-3.133911 -2.10209,-3.1339123 h -1.67448 -1.67449 v 3.1339123 3.133911 h -2.14731 -2.14731 z m 10.27081,-0.5479356 c 1.30604,-0.6015544 1.8101,-1.6262662 1.5491,-3.1491776 -0.11263,-0.65717555 -0.1921,-0.81032678 -0.66369,-1.27914941 -0.79497,-0.79027029 -1.06197,-0.84826219 -4.16296,-0.90415539 l -2.69864,-0.048629 V 1.6312914 4.493727 l 2.69864,-0.038528 c 2.52519,-0.036048 2.73586,-0.055706 3.27755,-0.3052016 z m 9.80943,0.5571896 v -9.7499468 h 7.3705 7.37049 v 1.9151678 1.9151675 h -5.22319 -5.22318 V 0.76074686 2.7339547 h 4.58479 4.5848 v 1.9151615 1.9151736 h -4.5848 -4.58479 v 2.0312361 2.0312421 h 5.28122 5.28122 v 1.915162 1.915173 h -7.42853 -7.42853 z m 18.6874,0 v -9.7499468 h 1.96237 1.96238 l 4.5666,5.97646062 4.56661,5.97645418 0.0301,-5.97645418 0.03,-5.97646062 h 2.08823 2.08823 v 9.7499468 9.7499465 h -1.79463 -1.79464 l -4.65625,-6.0924138 c -2.56095,-3.350819 -4.70447,-6.1221902 -4.76337,-6.1585954 -0.0649,-0.040101 -0.10711,2.3599841 -0.10711,6.0924018 v 6.1586074 h -2.08927 -2.08927 z m 22.053442,0 v -9.7499468 h 7.312459 7.312459 v 1.9151678 1.9151675 h -5.223188 -5.223182 V 0.76074686 2.7339547 h 4.584792 4.584799 v 1.9151615 1.9151736 h -4.584799 -4.584792 v 2.0312361 2.0312421 h 5.281216 5.281222 v 1.915162 1.915173 h -7.370493 -7.370493 z"
         id="path1288" />
      <path
         style="fill:#00b0d5;fill-opacity:1;stroke-width:0.115751"
         d="M -3.8063895,14.713813 C -8.9428595,14.17091 -12.4238,10.476279 -12.68036,5.2951204 c -0.25061,-5.06103085 3.2107002,-9.4459958 8.1794605,-10.3621532 1.07252,-0.1977582 3.3708501,-0.1680559 4.58385001,0.059246 0.5634,0.1055733 1.43463999,0.3501661 1.93607999,0.543545 0.89987,0.3470207 2.97164,1.6279479 2.97164,1.8372866 0,0.059307 -0.57956,0.8079638 -1.28792,1.66367855 l -1.28791,1.5558514 -0.59304,-0.4474572 c -2.16811999,-1.63588205 -4.96276,-1.96676585 -7.0634,-0.836298 -1.92218,1.0344227 -3.21887,3.58200925 -3.02984,5.95267105 0.29661,3.7199118 3.11826,6.0575304 6.8118001,5.6433174 0.94629991,-0.106116 2.04085991,-0.439303 2.6778499,-0.81514 l 0.41569,-0.2452587 V 8.4089554 6.9735065 H -0.50749949 -2.6488794 V 5.1214874 3.2694753 h 4.2248999 4.2249 v 4.2254965 4.2255022 l -0.78131,0.577926 c -2.50989,1.856532 -5.74281999,2.741289 -8.826,2.415413 z m 111.7780395,0.0043 c -4.16617,-0.439975 -7.59602,-3.260971 -8.654145,-7.1179286 -1.411014,-5.143126 1.232635,-10.3871524 6.138385,-12.1763522 2.27694,-0.8304283 5.47092,-0.8341907 7.57519,-0.00892 1.66931,0.6546826 2.76422,1.3905439 3.89597,2.6183883 1.23568,1.34059435 2.01204,2.86848423 2.37981,4.6835444 0.25697,1.2681741 0.17068,3.612518 -0.1772,4.8139645 -0.94114,3.2504046 -3.5303,5.8522716 -6.74829,6.7814256 -0.81652,0.235762 -3.11429,0.582049 -3.42979,0.516892 -0.041,-0.0085 -0.48197,-0.05845 -0.97993,-0.111016 z m 2.68874,-3.987353 c 2.06869,-0.487628 3.66507,-2.1061146 4.23481,-4.2934635 0.22686,-0.8709597 0.2227,-2.4266099 -0.009,-3.3247797 -1.15327,-4.4730209 -6.76854,-5.9941556 -9.87369,-2.67472045 -1.19239,1.27466665 -1.64019,2.45823555 -1.64166,4.33898495 -0.003,4.0561091 3.43324,6.8629477 7.28942,5.9539787 z m 17.54702,3.876417 c -2.10727,-0.329522 -4.2883,-1.317556 -6.04424,-2.738125 l -0.25673,-0.207677 1.10571,-1.33114 c 0.60815,-0.7321226 1.17395,-1.4019286 1.25738,-1.4884576 0.12704,-0.131806 0.25567,-0.08049 0.79272,0.316256 1.73304,1.2802676 3.22242,1.8069546 5.11293,1.8080786 1.17633,6.1e-4 1.31732,-0.0237 1.85202,-0.320457 0.70463,-0.391077 0.98388,-0.8421257 0.98388,-1.5891766 0,-1.103416 -0.79182,-1.6113404 -3.76709,-2.4164641 -2.21405,-0.5991322 -2.87963,-0.8312407 -3.85817,-1.34545 -1.43691,-0.7550771 -2.29642,-1.8764012 -2.57261,-3.3562593 -0.1793,-0.96065877 -0.0699,-2.51506875 0.23303,-3.3126982 0.59463,-1.5653918 1.98538,-2.8318925 3.7632,-3.4269813 0.86679,-0.2901448 1.07005,-0.312371 2.78699,-0.3047851 2.06318,0.0091 2.92317,0.1760205 4.56543,0.8860398 0.87849,0.3798073 2.43749,1.3299301 2.43749,1.4855079 0,0.044892 -0.48878,0.7887426 -1.08619,1.6529654 -0.88077,1.27417815 -1.11167,1.54060025 -1.22103,1.40881845 -0.28636,-0.3450355 -2.64439,-1.43476445 -3.53193,-1.63222345 -2.54807,-0.566889 -4.3377,0.47591965 -3.7698,2.19665723 0.2656,0.80478767 0.76289,1.03501497 4.74742,2.19783577 2.70753,0.7901535 4.27871,1.8085795 4.97297,3.2234331 1.01891,2.0764858 0.47376,5.1321864 -1.18265,6.6290614 -0.64975,0.587154 -1.87509,1.230134 -2.882,1.512284 -0.7525,0.21086 -3.46967,0.304485 -4.43873,0.152957 z M -55.37143,14.065728 c 0.0967,-0.240135 1.96428,-4.6296856 4.15027,-9.7545557 l 3.97452,-9.3179394 1.96622,-0.031577 1.96623,-0.031577 2.40913,5.64550435 c 1.32503,3.10502685 3.20279,7.50764915 4.17281,9.78359775 l 1.76368,4.138088 h -2.22393 -2.22394 l -0.8796,-2.17032 -0.8796,-2.170333 -4.14723,-0.02797 -4.14721,-0.02797 -0.86978,2.169342 -0.86977,2.169343 -2.16877,0.03152 -2.16878,0.03152 z m 11.78936,-9.7834945 c -0.47844,-1.1618496 -1.05525,-2.5717552 -1.28179,-3.1331289 -0.22655,-0.56137365 -0.45014,-0.97807205 -0.49688,-0.92600305 -0.0631,0.070307 -2.10482,4.96171145 -2.51567,6.02689355 -0.0436,0.1131286 0.51359,0.1446938 2.55421,0.1446938 h 2.61002 z m 11.64823,0.4919401 v -9.7230693 h 4.60414 c 4.51315,0 6.04297,0.086169 7.0867,0.3991567 2.27518,0.6822837 3.81453,2.2305492 4.26404,4.28875485 0.69894,3.20028415 -0.42422,5.91727085 -3.03945,7.35259105 l -0.87219,0.4786863 0.59906,0.8880192 c 0.32946,0.48841 1.39311,2.0469796 2.36365,3.4634746 l 1.7646,2.575456 h -2.48092 -2.48093 l -2.08563,-3.125273 -2.08562,-3.1252686 h -1.67733 -1.67734 v 3.1252686 3.125273 h -2.14138 -2.1414 z M -21.69133,4.218517 c 1.15234,-0.5307615 1.61278,-1.2535643 1.60005,-2.51174 -0.004,-0.4456371 -0.063,-0.94771017 -0.13008,-1.11571125 -0.19933,-0.49952 -0.7976,-1.0990676 -1.38307,-1.3860241 -0.51768,-0.25373015 -0.70276,-0.27124735 -3.29755,-0.31215735 l -2.74908,-0.043365 v 2.85589 2.8558897 l 2.69121,-0.03848 c 2.51822,-0.035975 2.72832,-0.055519 3.26852,-0.3043573 z M 9.9679509,4.7741736 V -4.948798 h 7.2923091 7.2923 v 1.9098898 1.90989 H 19.34377 14.13499 V 0.83874303 2.8065103 h 4.57215 4.57216 v 1.9098835 1.9098966 h -4.57216 -4.57215 v 2.025633 2.0256376 h 5.26666 5.26665 v 1.90989 1.909891 H 17.31813 9.9679509 Z M 28.48809,4.7717336 v -9.7257994 l 1.99167,0.0317 1.99169,0.0317 4.5193,5.9120545 4.5193,5.9120548 0.03,-5.94099357 0.03,-5.94098723 h 2.08247 2.08247 v 9.7230682 9.7230631 h -1.7767 -1.7767 l -4.67641,-6.1198716 -4.67641,-6.1198723 -0.03,6.1198723 -0.03,6.1198716 H 30.62839 28.48801 V 4.7717916 Z m 26.50694,1.9704983 v -7.7553056 h -2.95165 -2.95165 v -1.9677674 -1.9677673 h 8.04468 8.04469 v 1.9677673 1.9677674 H 62.22945 59.2778 V 6.7422289 14.49753 H 57.13641 54.99503 Z M 68.65362,4.7744638 v -9.7230692 h 2.14139 2.14139 v 9.7230692 9.7230692 h -2.14139 -2.14139 z m 9.14432,0 v -9.7230692 h 1.95696 1.95696 l 4.55402,5.9599885 4.55403,5.9599827 0.03,-5.9599827 0.03,-5.9599885 h 2.08248 2.08247 V 4.7744638 14.497533 H 93.25517 91.46548 L 86.82206,8.4219254 C 84.26818,5.0803362 82.13057,2.3166072 82.07183,2.2802963 82.00713,2.2402903 81.96502,4.6337768 81.96502,8.3559114 V 14.497533 H 79.8815 77.79799 Z"
         id="path1288-7-2" />
      <path
         style="fill:#0076b4;fill-opacity:1;stroke-width:0.170984"
         d="m 26.990983,62.618192 c -6.82611,-1.20963 -11.7407,-5.60638 -13.48542,-12.06442 -0.54942,-2.0337 -0.55552,-6.2607 -0.0119,-8.24551 1.88864,-6.89554 7.32331,-11.46726 14.59545,-12.27789 3.85927,-0.43021 7.72919,0.40634 11.13522,2.40703 1.73259,1.01775 4.41803,3.76055 5.41458,5.53026 1.60389,2.84825 2.33935,5.92019 2.17408,9.08093 -0.13422,2.56734 -0.61582,4.41413 -1.73891,6.66838 -2.24342,4.50275 -5.93066,7.38515 -11.05147,8.63919 -1.86557,0.45687 -5.22559,0.58206 -7.03162,0.26203 z m 5.60337,-6.53818 c 4.0886,-1.0018 6.93598,-4.92055 6.94539,-9.55873 0.006,-3.07407 -0.92668,-5.44544 -2.92035,-7.4234 -1.9099,-1.89482 -4.00138,-2.73744 -6.78547,-2.7337 -2.69224,0.004 -4.83361,0.85713 -6.61196,2.63548 -1.99669,1.99672 -2.92191,4.37494 -2.89853,7.45051 0.0516,6.77735 5.72886,11.23274 12.27092,9.62984 z m 32.66256,6.53288 c -6.26556,-1.10675 -11.0251,-5.35852 -12.83542,-11.46614 -0.36236,-1.22253 -0.47265,-2.01866 -0.54398,-3.92715 -0.10123,-2.70886 0.075,-4.17735 0.74079,-6.17059 2.50674,-7.50512 9.44157,-11.80903 17.76644,-11.02632 2.52087,0.237 4.13287,0.65543 6.01282,1.5608 1.27386,0.61345 3.80338,2.35046 4.30751,2.95789 0.16852,0.20306 -0.18086,0.69313 -1.95626,2.74383 -1.18881,1.37311 -2.18694,2.49659 -2.21806,2.49659 -0.0312,0 -0.59786,-0.40717 -1.25942,-0.90486 -2.38493,-1.79414 -4.37551,-2.51481 -6.94634,-2.51481 -2.58161,0 -4.58626,0.8074 -6.28239,2.53024 -1.83875,1.86772 -2.78244,3.99339 -2.97072,6.69135 -0.41709,5.9778 3.7219,10.81767 9.2511,10.81767 2.66488,0 4.83767,-0.75663 6.82689,-2.3773 0.5536,-0.45103 1.13338,-0.91468 1.28837,-1.03026 0.24314,-0.18133 0.58618,0.096 2.49861,2.01949 l 2.21679,2.22968 -0.9937,0.93237 c -2.5149,2.35967 -4.88019,3.63037 -7.94455,4.2681 -1.84713,0.38442 -5.26956,0.46774 -6.95848,0.16942 z M -178.31376,46.364682 v -15.98695 h 3.41858 3.41859 l 0.0438,12.781 0.0438,12.78101 7.99348,0.0443 7.99347,0.0443 v 3.16152 3.16149 h -11.45592 -11.45589 z m 28.55424,0 v -15.98695 h 3.41967 3.41967 v 15.98695 15.98693 h -3.41967 -3.41967 z m 14.87556,0 v -15.98695 h 3.2243 3.22429 l 7.50492,9.83133 7.50492,9.83132 0.044,-9.83132 0.0441,-9.83133 h 3.41827 3.41829 v 15.98695 15.98693 h -2.9557 -2.95569 l -7.07874,-9.27584 c -3.89331,-5.10171 -7.37216,-9.65138 -7.73077,-10.11035 l -0.65204,-0.83452 v 10.11037 10.11034 h -3.50516 -3.50516 z m 36.077513,0 v -15.98695 h 12.05819 12.05819 l -0.0465,3.12042 -0.0466,3.12048 -8.59568,0.0442 -8.5957,0.0442 0.0465,3.20435 0.0465,3.20437 7.56603,0.0444 7.56601,0.0444 v 3.07592 3.07592 h -7.61238 -7.61237 l 0.0463,3.37693 0.0463,3.37693 8.67741,0.0442 8.67743,0.0442 v 3.07613 3.07612 h -12.1397 -12.13984 z m 27.94377,15.68772 c 0.0604,-0.16456 3.12724,-7.39562 6.81491,-16.06899 l 6.70481,-15.76978 3.24868,0.001 3.24868,9.9e-4 6.70456,15.76879 c 3.68753,8.67283 6.75483,15.90498 6.81623,16.07145 0.10491,0.28451 -0.10763,0.29991 -3.54138,0.25648 l -3.65302,-0.0463 -1.43758,-3.54792 -1.43755,-3.5479 h -6.7928 -6.7928 l -1.23554,3.03497 c -0.67955,1.66921 -1.33848,3.28501 -1.46423,3.59063 l -0.22867,0.55569 h -3.53217 c -3.29191,0 -3.52469,-0.0202 -3.42213,-0.2992 z m 20.82376,-13.34749 c -1.22338,-3.09032 -4.07708,-9.94313 -4.14085,-9.94377 -0.0612,-6.4e-4 -3.53196,8.26018 -4.24609,10.10643 -0.0313,0.0811 1.8705,0.14734 4.22634,0.14734 4.06731,0 4.27713,-0.0157 4.1606,-0.31 z m 31.42372,-2.35721 v -16.00391 l 8.59193,0.0791 c 8.1217003,0.0751 8.6714403,0.0996 10.04526033,0.45146 4.04929997,1.03716 6.69698997,3.48793 7.64210997,7.07366 0.35204,1.33556 0.39313,4.47665 0.0754,5.76635 -0.33977,1.37934 -1.26723,3.23072 -2.08239,4.15678 -0.83456,0.94812 -2.52437,2.19392 -3.65301,2.69318 -0.51993,0.22997 -0.75029,0.42124 -0.6684,0.55487 0.0687,0.11217 1.80178,2.65366 3.85118,5.64775 2.04942,2.9941 3.72619,5.4755 3.72619,5.51423 0,0.0386 -1.8274,0.0684 -4.06085,0.0661 l -4.06084997,-0.004 -3.40346003,-5.12518 -3.40346,-5.12517 h -2.7947 -2.7947003 v 5.12949 5.1295 h -3.50514 -3.50517 z m 16.2551403,-0.68078 c 1.85140003,-0.53888 2.89564003,-1.62586 3.20759003,-3.33889 0.33647997,-1.8479 -0.31682,-3.74398 -1.59496,-4.62893 -1.20921003,-0.83724 -2.28564003,-0.995 -6.78976003,-0.995 h -4.0676903 v 4.61656 4.61655 h 4.1580603 c 3.28502,0 4.35304,-0.0568 5.08676,-0.27029 z m 86.5933197,16.33672 c 0.0619,-0.19527 3.05938,-7.26348 6.66093,-15.70714 3.60156,-8.44366 6.60147,-15.51974 6.66649,-15.72457 0.11673,-0.36779 0.15966,-0.3719 3.394747,-0.3261 l 3.2765,0.0464 6.78959,15.90148 c 3.73425,8.7458 6.79373,15.95918 6.79882,16.0297 0.005,0.0704 -1.62577,0.12688 -3.62415,0.12523 l -3.6334,-0.003 -1.44287,-3.58764 -1.44286,-3.58765 h -6.78785 -6.787827 l -0.44682,1.06866 c -0.24573,0.58774 -0.89837,2.1843 -1.45028,3.5479 l -1.00349,2.47927 -3.54011,0.0463 c -3.5155,0.0457 -3.53932,0.0437 -3.42742,-0.30876 z m 20.695177,-13.54442 c -0.12701,-0.30565 -1.0506,-2.55621 -2.05242,-5.00127 -1.00183,-2.44506 -1.87746,-4.50188 -1.94583,-4.5707 -0.0894,-0.0899 -3.391537,7.6174 -4.274027,9.97539 -0.0323,0.0866 1.79147,0.15227 4.223087,0.15227 h 4.28012 z m -253.45956,-21.37292 c 0.42474,-0.52702 4.35704,-5.58921 4.86468,-6.26249 0.0697,-0.0926 5.87696,2.41 5.8697,2.52945 -0.003,0.0547 -1.35922,1.08067 -3.01309,2.27967 l -3.00702,2.18004 h -2.64996 -2.64997 z"
         id="path17752" />
    </g>
  </g>
</svg>
